<?xml version="1.0" encoding="UTF-8"?>
<svg id="Layer_1" xmlns="http://www.w3.org/2000/svg" xmlns:xlink="http://www.w3.org/1999/xlink" version="1.1" viewBox="0 0 354 92">
  <!-- Generator: Adobe Illustrator 29.3.0, SVG Export Plug-In . SVG Version: 2.1.0 Build 146)  -->
  <defs>
    <style>
      .st0 {
        fill: none;
      }

      .st1 {
        fill: #231f20;
      }

      .st2 {
        fill: #81a969;
        fill-opacity: .4;
      }

      .st3 {
        fill: #373737;
      }

      .st4 {
        clip-path: url(#clippath-1);
      }

      .st5 {
        fill: #efb344;
      }

      .st6 {
        fill: #387f43;
      }

      .st7 {
        clip-path: url(#clippath);
      }
    </style>
    <clipPath id="clippath">
      <rect class="st0" x="109.9" y="18.2" width="37.8" height="49.2"/>
    </clipPath>
    <clipPath id="clippath-1">
      <rect class="st0" x="92.6" y="3.4" width="41.3" height="62.8"/>
    </clipPath>
  </defs>
  <path class="st2" d="M5.4,76.2l12-5.9c2.2,3.7,6.1,5.5,11.5,5.5s4.9-.8,7.1-2.5c2.2-1.6,3.3-4.1,3.3-7.5v-3.2c-2.6,2.9-7.3,4.3-14,4.3s-11.2-2.2-15.2-6.5-6-9.7-6-16,2-11.7,6-16c4-4.4,9.1-6.6,15.2-6.6s10.1,1.7,13.7,5.1h.3v-3.8h14.7v43.8c0,6.9-2.3,12.3-6.9,16-4.6,3.8-10.7,5.7-18.2,5.7-12.2,0-20-4.1-23.6-12.4h0ZM22.7,37.2c-1.9,1.9-2.9,4.3-2.9,7.2s.9,5.3,2.7,7.2c1.8,1.8,4.2,2.8,7.2,2.8s5.3-.9,7.1-2.8c1.9-1.9,2.8-4.3,2.8-7.1s-1-5.4-2.9-7.2c-1.9-1.9-4.2-2.8-7-2.8s-5.2.9-7.1,2.8h.1Z"/>
  <path class="st2" d="M59.6,65.7V23.1h14.7v6.1h.2c.1-.2.3-.5.5-.8s.8-.9,1.6-1.8,1.7-1.6,2.7-2.2c.9-.7,2.2-1.3,3.6-1.8,1.5-.5,3-.8,4.6-.8s3.2.2,4.7.7c1.6.4,2.7.9,3.4,1.3l1.1.6-6.1,12.5c-1.8-1.6-4.4-2.3-7.6-2.3s-3.3.4-4.6,1.2-2.2,1.7-2.7,2.8-.9,2-1.1,2.8c-.2.8-.3,1.4-.3,1.8v22.4h-14.7,0Z"/>
  <path class="st2" d="M177.6,65.7h-10l-22.9-42.6h17l10.4,23,10.2-23h10.1l10.2,23,10.4-23h17l-22.9,42.6h-10l-9.8-22-9.8,22h0Z"/>
  <path class="st2" d="M231.5,23.1V7.2h14.7v15.9h9v11.2h-9v13.5c0,3.9,1.1,5.9,3.3,5.9s1.1-.1,1.7-.3c.6-.2,1.1-.4,1.4-.7l.5-.3,3.7,11.9c-3.2,1.8-6.8,2.7-10.8,2.7s-5.1-.5-7.1-1.5-3.5-2.3-4.5-3.9-1.7-3.4-2.2-5.1c-.4-1.8-.7-3.7-.7-5.8v-16.4h-6.1v-11.2h6.1Z"/>
  <path class="st2" d="M300.5,46.4h-30.9c0,3,1,5.2,2.9,6.6s4.1,2.1,6.3,2.1,4.3-.3,5.6-.9c1.4-.6,3-1.9,4.8-3.8l10.6,5.3c-4.4,7.4-11.8,11.1-22.1,11.1s-11.9-2.2-16.5-6.6-6.9-9.7-6.9-15.9,2.3-11.5,6.9-16c4.6-4.4,10.1-6.6,16.5-6.6s12.2,2,16.5,5.9,6.4,9.5,6.4,16.8,0,1.7,0,2h0ZM270,38.3h16.2c-.3-2.2-1.2-3.9-2.6-5.1-1.4-1.2-3.2-1.8-5.4-1.8s-4.4.6-5.8,1.9c-1.4,1.3-2.2,2.9-2.3,5h-.1Z"/>
  <path class="st2" d="M306,60.4c-4-4.4-6-9.7-6-16s2-11.7,6-16,9.1-6.5,15.2-6.5,10.3,2,14,6.1h.2v-4.8h14.5v64.2h-14.7v-25.7c-3.7,3.5-8.3,5.3-14,5.3s-11.2-2.2-15.2-6.6h0ZM318.4,37.2c-1.8,1.8-2.7,4.2-2.7,7.2s.9,5.3,2.9,7.2c1.9,1.9,4.3,2.8,7.1,2.8s5.1-.9,7-2.8,2.9-4.3,2.9-7.2-.9-5.3-2.8-7.1c-1.8-1.9-4.2-2.8-7.1-2.8s-5.4.9-7.2,2.8h0Z"/>
  <path class="st3" d="M5.4,76.2l12-5.9c2.2,3.7,6.1,5.5,11.5,5.5s4.9-.8,7.1-2.5c2.2-1.6,3.3-4.1,3.3-7.5v-3.2c-2.6,2.9-7.3,4.3-14,4.3s-11.2-2.2-15.2-6.5-6-9.7-6-16,2-11.7,6-16c4-4.4,9.1-6.6,15.2-6.6s10.1,1.7,13.7,5.1h.3v-3.8h14.7v43.8c0,6.9-2.3,12.3-6.9,16-4.6,3.8-10.7,5.7-18.2,5.7-12.2,0-20-4.1-23.6-12.4h0ZM22.7,37.2c-1.9,1.9-2.9,4.3-2.9,7.2s.9,5.3,2.7,7.2c1.8,1.8,4.2,2.8,7.2,2.8s5.3-.9,7.1-2.8c1.9-1.9,2.8-4.3,2.8-7.1s-1-5.4-2.9-7.2c-1.9-1.9-4.2-2.8-7-2.8s-5.2.9-7.1,2.8h.1Z"/>
  <path class="st3" d="M59.6,65.7V23.1h14.7v6.1h.2c.1-.2.3-.5.5-.8s.8-.9,1.6-1.8,1.7-1.6,2.7-2.2c.9-.7,2.2-1.3,3.6-1.8,1.5-.5,3-.8,4.6-.8s3.2.2,4.7.7c1.6.4,2.7.9,3.4,1.3l1.1.6-6.1,12.5c-1.8-1.6-4.4-2.3-7.6-2.3s-3.3.4-4.6,1.2-2.2,1.7-2.7,2.8-.9,2-1.1,2.8c-.2.8-.3,1.4-.3,1.8v22.4h-14.7,0Z"/>
  <path class="st3" d="M177.6,65.7h-10l-22.9-42.6h17l10.4,23,10.2-23h10.1l10.2,23,10.4-23h17l-22.9,42.6h-10l-9.8-22-9.8,22h0Z"/>
  <path class="st3" d="M231.5,23.1V7.2h14.7v15.9h9v11.2h-9v13.5c0,3.9,1.1,5.9,3.3,5.9s1.1-.1,1.7-.3c.6-.2,1.1-.4,1.4-.7l.5-.3,3.7,11.9c-3.2,1.8-6.8,2.7-10.8,2.7s-5.1-.5-7.1-1.5-3.5-2.3-4.5-3.9-1.7-3.4-2.2-5.1c-.4-1.8-.7-3.7-.7-5.8v-16.4h-6.1v-11.2h6.1Z"/>
  <path class="st3" d="M300.5,46.4h-30.9c0,3,1,5.2,2.9,6.6s4.1,2.1,6.3,2.1,4.3-.3,5.6-.9c1.4-.6,3-1.9,4.8-3.8l10.6,5.3c-4.4,7.4-11.8,11.1-22.1,11.1s-11.9-2.2-16.5-6.6-6.9-9.7-6.9-15.9,2.3-11.5,6.9-16c4.6-4.4,10.1-6.6,16.5-6.6s12.2,2,16.5,5.9,6.4,9.5,6.4,16.8,0,1.7,0,2h0ZM270,38.3h16.2c-.3-2.2-1.2-3.9-2.6-5.1-1.4-1.2-3.2-1.8-5.4-1.8s-4.4.6-5.8,1.9c-1.4,1.3-2.2,2.9-2.3,5h-.1Z"/>
  <path class="st3" d="M306,60.4c-4-4.4-6-9.7-6-16s2-11.7,6-16,9.1-6.5,15.2-6.5,10.3,2,14,6.1h.2v-4.8h14.5v64.2h-14.7v-25.7c-3.7,3.5-8.3,5.3-14,5.3s-11.2-2.2-15.2-6.6h0ZM318.4,37.2c-1.8,1.8-2.7,4.2-2.7,7.2s.9,5.3,2.9,7.2c1.9,1.9,4.3,2.8,7.1,2.8s5.1-.9,7-2.8,2.9-4.3,2.9-7.2-.9-5.3-2.8-7.1c-1.8-1.9-4.2-2.8-7.1-2.8s-5.4.9-7.2,2.8h0Z"/>
  <g class="st7">
    <path class="st5" d="M148.1,41.5c0,14-11.4,25.4-25.4,25.4s-2.5,0-3.8-.3c-1.3-.8-2.6-1.8-3.7-3.1-1.7-2-3-4.1-4.1-6.3,3.2,2.4,7.2,3.8,11.6,3.8,10.8,0,19.6-8.8,19.6-19.6s-4.2-14-10.4-17.3c1.4-1.3,2.4-2.7,3.2-4.4,0-.1.1-.2.2-.4,7.7,4.4,12.9,12.6,12.9,22.1h-.1Z"/>
  </g>
  <g class="st4">
    <path class="st6" d="M113.3,65.2c-8.4-10-9.3-22.5-5.8-29.7,2.9-6,10-7.7,16.9-9.9,11.5-3.7,10.6-14,6.8-22.2-6,11.2-30.7,6.5-36.5,28.4-5,19.1,11.7,29.4,11.7,29.4-15.4-18.9-4.6-41,14.9-44.2-12.9,5.8-21.2,14.4-19.4,28.7,1.7,13.1,11.3,19.5,11.3,19.5h.1Z"/>
  </g>
  <path class="st1" d="M63.5,84.1l3.6-9.1h2l3.6,9.1h-2.2l-.6-1.6h-3.6l-.6,1.6h-2.2ZM66.8,80.9h2.6l-1.3-3.3-1.3,3.3Z"/>
  <path class="st1" d="M85.2,84.3c-.9,0-1.8-.2-2.5-.6s-1.3-1-1.7-1.7-.6-1.5-.6-2.5.2-1.8.6-2.5c.4-.7,1-1.3,1.7-1.7.7-.4,1.5-.6,2.5-.6s1.4.1,2,.4,1.2.6,1.6,1.1c.4.5.8,1,1,1.7h-2.3c-.2-.4-.5-.7-.9-.9-.4-.2-.9-.3-1.4-.3s-1,.1-1.4.4c-.4.2-.7.6-1,1-.2.4-.4.9-.4,1.5s.1,1,.3,1.5c.2.4.6.8,1,1s.9.4,1.5.4,1.2-.2,1.7-.5c.4-.3.7-.8.9-1.4h-3v-1.6h5.2c0,.8,0,1.5-.3,2.2-.2.7-.5,1.2-.9,1.7s-.9.8-1.5,1.1c-.6.3-1.3.4-2,.4h-.1Z"/>
  <path class="st1" d="M98.6,84.1v-9.1h3.9c.7,0,1.3.1,1.8.4s.9.6,1.2,1.1.4,1,.4,1.7-.2,1.2-.5,1.7-.7.8-1.3,1.1l1.9,3.2h-2.4l-1.6-2.8h-1.4v2.8h-2.1.1ZM100.6,79.5h1.6c.5,0,.9-.1,1.2-.4s.4-.6.4-1-.1-.8-.4-1c-.3-.2-.7-.4-1.2-.4h-1.6v2.8Z"/>
  <path class="st1" d="M114.8,84.1v-9.1h2.1v9.1h-2.1Z"/>
  <path class="st1" d="M136.1,84.1v-9.1h5.7v1.9h-3.6v2.3h3.3v1.8h-3.3v3.1h-2.1,0Z"/>
  <path class="st1" d="M149.5,84.1l3.6-9.1h2l3.6,9.1h-2.2l-.6-1.6h-3.6l-.6,1.6h-2.2ZM152.8,80.9h2.6l-1.3-3.3-1.3,3.3Z"/>
  <path class="st1" d="M167,84.1v-9.1h3.9c.7,0,1.3.1,1.8.4s.9.6,1.2,1.1.4,1,.4,1.7-.2,1.2-.5,1.7-.7.8-1.3,1.1l1.9,3.2h-2.4l-1.6-2.8h-1.4v2.8h-2.1.1ZM169,79.5h1.6c.5,0,.9-.1,1.2-.4s.4-.6.4-1-.1-.8-.4-1c-.3-.2-.7-.4-1.2-.4h-1.6v2.8Z"/>
  <path class="st1" d="M183.1,84.1v-9.1h1.8l3.3,4.7,3.2-4.7h1.8v9.1h-2.1v-5.5l-2.2,3.3h-1.4l-2.2-3.3v5.5h-2.2Z"/>
  <path class="st1" d="M205.5,84.3c-.8,0-1.4-.1-2-.4-.5-.3-1-.6-1.3-1.1s-.4-1-.4-1.6h2c0,.4.1.8.4,1s.7.4,1.2.4.8,0,1-.3c.3-.2.4-.4.4-.7s-.2-.6-.5-.8c-.3-.2-.8-.4-1.4-.5-1.1-.2-1.9-.6-2.4-1-.5-.5-.8-1.1-.8-1.8s.3-1.5.9-2,1.4-.7,2.5-.7,1.3.1,1.9.4c.5.3.9.6,1.2,1,.3.4.4,1,.4,1.6h-2c0-.4-.1-.7-.4-1-.3-.2-.6-.4-1.1-.4s-.8,0-1,.3c-.3.2-.4.4-.4.7s.1.5.4.7.8.4,1.5.5c1.1.3,2,.6,2.5,1.1.5.4.8,1,.8,1.8s-.3,1.5-.9,2-1.5.7-2.6.7h0Z"/>
  <path class="st1" d="M227.7,84.1v-9.1h3.6c.7,0,1.4.1,1.9.4s1,.6,1.3,1.1.5,1.1.5,1.7-.2,1.3-.5,1.8-.7.9-1.3,1.1c-.5.3-1.2.4-1.9.4h-1.5v2.5h-2.1ZM229.7,79.8h1.4c.5,0,1-.1,1.3-.4s.4-.6.4-1.1-.1-.9-.4-1.1c-.3-.3-.7-.4-1.3-.4h-1.4v3Z"/>
  <path class="st1" d="M245.9,84.1l-3.5-9.1h2.2l1.2,3.3,1.1,2.9,2.3-6.1h2.2l-3.5,9.1h-2Z"/>
  <path class="st1" d="M261.8,84.1v-7.2h-2.9v-1.9h7.9v1.9h-2.9v7.2h-2.1Z"/>
  <path class="st1" d="M285.3,84.1v-9.1h2.1v7.2h4v1.9h-6.1Z"/>
  <path class="st1" d="M302,84.1v-7.2h-2.9v-1.9h7.9v1.9h-2.9v7.2h-2.1Z"/>
  <path class="st1" d="M315.5,84.1v-9.1h3.6c1,0,1.8.2,2.5.6s1.3.9,1.7,1.6c.4.7.6,1.5.6,2.4s-.2,1.7-.6,2.4c-.4.7-1,1.2-1.7,1.6s-1.6.6-2.5.6h-3.6ZM317.5,82.2h1.5c.5,0,1-.1,1.4-.3.4-.2.7-.5,1-.9.2-.4.4-.9.4-1.4s-.1-1-.4-1.4c-.2-.4-.5-.7-1-.9-.4-.2-.9-.3-1.4-.3h-1.5v5.3h0Z"/>
</svg>
