<?xml version="1.0" encoding="UTF-8"?>
<svg id="Layer_1" xmlns="http://www.w3.org/2000/svg" xmlns:xlink="http://www.w3.org/1999/xlink" version="1.1" viewBox="0 0 64 64">
  <!-- Generator: Adobe Illustrator 29.3.0, SVG Export Plug-In . SVG Version: 2.1.0 Build 146)  -->
  <defs>
    <style>
      .st0 {
        fill: none;
      }

      .st1 {
        clip-path: url(#clippath-1);
      }

      .st2 {
        fill: #fff;
      }

      .st3 {
        clip-path: url(#clippath);
      }
    </style>
    <clipPath id="clippath">
      <rect class="st0" x="25.3" y="20.8" width="24.7" height="32.1"/>
    </clipPath>
    <clipPath id="clippath-1">
      <rect class="st0" x="14" y="11.1" width="26.9" height="41"/>
    </clipPath>
  </defs>
  <g class="st3">
    <path class="st2" d="M50.2,36c0,9.1-7.4,16.6-16.6,16.6s-1.6,0-2.5-.2c-.9-.5-1.7-1.2-2.4-2.1-1.1-1.3-2-2.7-2.7-4.1,2.1,1.6,4.7,2.5,7.6,2.5,7,0,12.8-5.7,12.8-12.8s-2.8-9.1-6.8-11.3c.9-.9,1.6-1.8,2.1-2.9,0,0,0-.1.1-.3,5,2.9,8.4,8.2,8.4,14.4h0Z"/>
  </g>
  <g class="st1">
    <path class="st2" d="M27.5,51.4c-5.5-6.5-6.1-14.7-3.8-19.3,1.9-3.9,6.5-5,11.1-6.4,7.5-2.4,6.9-9.1,4.5-14.5-3.9,7.3-20.1,4.3-23.8,18.5-3.3,12.5,7.7,19.2,7.7,19.2-10.1-12.3-3-26.7,9.7-28.8-8.4,3.8-13.8,9.4-12.7,18.7,1.1,8.6,7.4,12.7,7.4,12.7h0Z"/>
  </g>
</svg>
