<svg xmlns="http://www.w3.org/2000/svg" xmlns:xlink="http://www.w3.org/1999/xlink" width="500" zoomAndPan="magnify" viewBox="0 0 375 374.999991" height="500" preserveAspectRatio="xMidYMid meet" version="1.0"><defs><g/><clipPath id="5e464e8617"><path d="M 136 168 L 164.359375 168 L 164.359375 204.867188 L 136 204.867188 Z M 136 168 " clip-rule="nonzero"/></clipPath><clipPath id="ed83cde8ca"><path d="M 123 156.867188 L 154 156.867188 L 154 204 L 123 204 Z M 123 156.867188 " clip-rule="nonzero"/></clipPath></defs><rect x="-37.5" width="450" fill="#ffffff" y="-37.499999" height="449.999989" fill-opacity="1"/><rect x="-37.5" width="450" fill="#ffffff" y="-37.499999" height="449.999989" fill-opacity="1"/><g fill="#81a969" fill-opacity="0.4"><g transform="translate(55.275805, 203.624987)"><g><path d="M 2.3125 7.859375 L 11.34375 3.421875 C 13.007812 6.171875 15.894531 7.546875 20 7.546875 C 21.914062 7.546875 23.691406 6.929688 25.328125 5.703125 C 26.972656 4.472656 27.796875 2.59375 27.796875 0.0625 L 27.796875 -2.3125 C 25.847656 -0.144531 22.359375 0.9375 17.328125 0.9375 C 12.710938 0.9375 8.910156 -0.691406 5.921875 -3.953125 C 2.929688 -7.210938 1.4375 -11.210938 1.4375 -15.953125 C 1.4375 -20.691406 2.929688 -24.703125 5.921875 -27.984375 C 8.910156 -31.265625 12.710938 -32.90625 17.328125 -32.90625 C 21.441406 -32.90625 24.867188 -31.640625 27.609375 -29.109375 L 27.796875 -29.109375 L 27.796875 -31.96875 L 38.828125 -31.96875 L 38.828125 0.875 C 38.828125 6.0625 37.101562 10.066406 33.65625 12.890625 C 30.207031 15.722656 25.65625 17.140625 20 17.140625 C 10.863281 17.140625 4.96875 14.046875 2.3125 7.859375 Z M 15.296875 -21.375 C 13.867188 -19.96875 13.15625 -18.160156 13.15625 -15.953125 C 13.15625 -13.753906 13.835938 -11.957031 15.203125 -10.5625 C 16.578125 -9.175781 18.382812 -8.484375 20.625 -8.484375 C 22.789062 -8.484375 24.566406 -9.1875 25.953125 -10.59375 C 27.347656 -12.007812 28.046875 -13.796875 28.046875 -15.953125 C 28.046875 -18.160156 27.328125 -19.96875 25.890625 -21.375 C 24.460938 -22.789062 22.707031 -23.5 20.625 -23.5 C 18.507812 -23.5 16.734375 -22.789062 15.296875 -21.375 Z M 15.296875 -21.375 "/></g></g></g><g fill="#81a969" fill-opacity="0.4"><g transform="translate(94.537116, 203.624987)"><g><path d="M 3.734375 0 L 3.734375 -31.96875 L 14.765625 -31.96875 L 14.765625 -27.359375 L 14.890625 -27.359375 C 14.972656 -27.523438 15.109375 -27.734375 15.296875 -27.984375 C 15.484375 -28.234375 15.890625 -28.671875 16.515625 -29.296875 C 17.140625 -29.921875 17.804688 -30.476562 18.515625 -30.96875 C 19.222656 -31.46875 20.132812 -31.914062 21.25 -32.3125 C 22.375 -32.707031 23.519531 -32.90625 24.6875 -32.90625 C 25.882812 -32.90625 27.066406 -32.738281 28.234375 -32.40625 C 29.398438 -32.070312 30.253906 -31.738281 30.796875 -31.40625 L 31.65625 -30.921875 L 27.046875 -21.5625 C 25.679688 -22.726562 23.769531 -23.3125 21.3125 -23.3125 C 19.988281 -23.3125 18.847656 -23.019531 17.890625 -22.4375 C 16.929688 -21.851562 16.253906 -21.144531 15.859375 -20.3125 C 15.460938 -19.488281 15.179688 -18.785156 15.015625 -18.203125 C 14.847656 -17.617188 14.765625 -17.160156 14.765625 -16.828125 L 14.765625 0 Z M 3.734375 0 "/></g></g></g><g fill="#81a969" fill-opacity="0.4"><g transform="translate(122.271894, 203.624987)"><g/></g></g><g fill="#81a969" fill-opacity="0.4"><g transform="translate(135.981915, 203.624987)"><g/></g></g><g fill="#81a969" fill-opacity="0.4"><g transform="translate(149.691936, 203.624987)"><g/></g></g><g fill="#81a969" fill-opacity="0.4"><g transform="translate(163.404704, 203.624987)"><g><path d="M 23.375 0 L 15.890625 0 L -1.25 -31.96875 L 11.46875 -31.96875 L 19.265625 -14.703125 L 26.921875 -31.96875 L 34.53125 -31.96875 L 42.203125 -14.703125 L 49.984375 -31.96875 L 62.703125 -31.96875 L 45.5625 0 L 38.078125 0 L 30.734375 -16.515625 Z M 23.375 0 "/></g></g></g><g fill="#81a969" fill-opacity="0.4"><g transform="translate(221.54904, 203.624987)"><g><path d="M 5.609375 -31.96875 L 5.609375 -43.875 L 16.640625 -43.875 L 16.640625 -31.96875 L 23.375 -31.96875 L 23.375 -23.5625 L 16.640625 -23.5625 L 16.640625 -13.40625 C 16.640625 -10.445312 17.472656 -8.96875 19.140625 -8.96875 C 19.554688 -8.96875 19.988281 -9.050781 20.4375 -9.21875 C 20.894531 -9.382812 21.25 -9.550781 21.5 -9.71875 L 21.875 -9.96875 L 24.625 -1.0625 C 22.25 0.269531 19.546875 0.9375 16.515625 0.9375 C 14.441406 0.9375 12.65625 0.570312 11.15625 -0.15625 C 9.65625 -0.882812 8.519531 -1.859375 7.75 -3.078125 C 6.988281 -4.304688 6.441406 -5.59375 6.109375 -6.9375 C 5.773438 -8.289062 5.609375 -9.738281 5.609375 -11.28125 L 5.609375 -23.5625 L 1 -23.5625 L 1 -31.96875 Z M 5.609375 -31.96875 "/></g></g></g><g fill="#81a969" fill-opacity="0.4"><g transform="translate(242.862126, 203.624987)"><g><path d="M 36.09375 -14.453125 L 12.90625 -14.453125 C 12.90625 -12.210938 13.628906 -10.550781 15.078125 -9.46875 C 16.535156 -8.394531 18.117188 -7.859375 19.828125 -7.859375 C 21.609375 -7.859375 23.015625 -8.09375 24.046875 -8.5625 C 25.085938 -9.039062 26.273438 -9.988281 27.609375 -11.40625 L 35.59375 -7.421875 C 32.269531 -1.847656 26.742188 0.9375 19.015625 0.9375 C 14.191406 0.9375 10.054688 -0.710938 6.609375 -4.015625 C 3.160156 -7.316406 1.4375 -11.296875 1.4375 -15.953125 C 1.4375 -20.609375 3.160156 -24.597656 6.609375 -27.921875 C 10.054688 -31.242188 14.191406 -32.90625 19.015625 -32.90625 C 24.078125 -32.90625 28.195312 -31.441406 31.375 -28.515625 C 34.5625 -25.585938 36.15625 -21.398438 36.15625 -15.953125 C 36.15625 -15.203125 36.132812 -14.703125 36.09375 -14.453125 Z M 13.21875 -20.5625 L 25.375 -20.5625 C 25.125 -22.226562 24.46875 -23.503906 23.40625 -24.390625 C 22.34375 -25.285156 20.984375 -25.734375 19.328125 -25.734375 C 17.492188 -25.734375 16.035156 -25.253906 14.953125 -24.296875 C 13.878906 -23.347656 13.300781 -22.101562 13.21875 -20.5625 Z M 13.21875 -20.5625 "/></g></g></g><g fill="#81a969" fill-opacity="0.4"><g transform="translate(277.13782, 203.624987)"><g><path d="M 5.921875 -3.984375 C 2.929688 -7.265625 1.4375 -11.273438 1.4375 -16.015625 C 1.4375 -20.753906 2.929688 -24.753906 5.921875 -28.015625 C 8.910156 -31.273438 12.710938 -32.90625 17.328125 -32.90625 C 21.566406 -32.90625 25.054688 -31.390625 27.796875 -28.359375 L 27.921875 -28.359375 L 27.921875 -31.96875 L 38.828125 -31.96875 L 38.828125 16.203125 L 27.796875 16.203125 L 27.796875 -3.046875 C 25.054688 -0.390625 21.566406 0.9375 17.328125 0.9375 C 12.710938 0.9375 8.910156 -0.703125 5.921875 -3.984375 Z M 15.203125 -21.40625 C 13.835938 -20.019531 13.15625 -18.222656 13.15625 -16.015625 C 13.15625 -13.816406 13.867188 -12.007812 15.296875 -10.59375 C 16.734375 -9.1875 18.507812 -8.484375 20.625 -8.484375 C 22.707031 -8.484375 24.460938 -9.1875 25.890625 -10.59375 C 27.328125 -12.007812 28.046875 -13.816406 28.046875 -16.015625 C 28.046875 -18.179688 27.347656 -19.96875 25.953125 -21.375 C 24.566406 -22.789062 22.789062 -23.5 20.625 -23.5 C 18.382812 -23.5 16.578125 -22.800781 15.203125 -21.40625 Z M 15.203125 -21.40625 "/></g></g></g><g fill="#373737" fill-opacity="1"><g transform="translate(55.275805, 203.624987)"><g><path d="M 2.3125 7.859375 L 11.34375 3.421875 C 13.007812 6.171875 15.894531 7.546875 20 7.546875 C 21.914062 7.546875 23.691406 6.929688 25.328125 5.703125 C 26.972656 4.472656 27.796875 2.59375 27.796875 0.0625 L 27.796875 -2.3125 C 25.847656 -0.144531 22.359375 0.9375 17.328125 0.9375 C 12.710938 0.9375 8.910156 -0.691406 5.921875 -3.953125 C 2.929688 -7.210938 1.4375 -11.210938 1.4375 -15.953125 C 1.4375 -20.691406 2.929688 -24.703125 5.921875 -27.984375 C 8.910156 -31.265625 12.710938 -32.90625 17.328125 -32.90625 C 21.441406 -32.90625 24.867188 -31.640625 27.609375 -29.109375 L 27.796875 -29.109375 L 27.796875 -31.96875 L 38.828125 -31.96875 L 38.828125 0.875 C 38.828125 6.0625 37.101562 10.066406 33.65625 12.890625 C 30.207031 15.722656 25.65625 17.140625 20 17.140625 C 10.863281 17.140625 4.96875 14.046875 2.3125 7.859375 Z M 15.296875 -21.375 C 13.867188 -19.96875 13.15625 -18.160156 13.15625 -15.953125 C 13.15625 -13.753906 13.835938 -11.957031 15.203125 -10.5625 C 16.578125 -9.175781 18.382812 -8.484375 20.625 -8.484375 C 22.789062 -8.484375 24.566406 -9.1875 25.953125 -10.59375 C 27.347656 -12.007812 28.046875 -13.796875 28.046875 -15.953125 C 28.046875 -18.160156 27.328125 -19.96875 25.890625 -21.375 C 24.460938 -22.789062 22.707031 -23.5 20.625 -23.5 C 18.507812 -23.5 16.734375 -22.789062 15.296875 -21.375 Z M 15.296875 -21.375 "/></g></g></g><g fill="#373737" fill-opacity="1"><g transform="translate(94.537116, 203.624987)"><g><path d="M 3.734375 0 L 3.734375 -31.96875 L 14.765625 -31.96875 L 14.765625 -27.359375 L 14.890625 -27.359375 C 14.972656 -27.523438 15.109375 -27.734375 15.296875 -27.984375 C 15.484375 -28.234375 15.890625 -28.671875 16.515625 -29.296875 C 17.140625 -29.921875 17.804688 -30.476562 18.515625 -30.96875 C 19.222656 -31.46875 20.132812 -31.914062 21.25 -32.3125 C 22.375 -32.707031 23.519531 -32.90625 24.6875 -32.90625 C 25.882812 -32.90625 27.066406 -32.738281 28.234375 -32.40625 C 29.398438 -32.070312 30.253906 -31.738281 30.796875 -31.40625 L 31.65625 -30.921875 L 27.046875 -21.5625 C 25.679688 -22.726562 23.769531 -23.3125 21.3125 -23.3125 C 19.988281 -23.3125 18.847656 -23.019531 17.890625 -22.4375 C 16.929688 -21.851562 16.253906 -21.144531 15.859375 -20.3125 C 15.460938 -19.488281 15.179688 -18.785156 15.015625 -18.203125 C 14.847656 -17.617188 14.765625 -17.160156 14.765625 -16.828125 L 14.765625 0 Z M 3.734375 0 "/></g></g></g><g fill="#373737" fill-opacity="1"><g transform="translate(122.271894, 203.624987)"><g/></g></g><g fill="#373737" fill-opacity="1"><g transform="translate(135.981915, 203.624987)"><g/></g></g><g fill="#373737" fill-opacity="1"><g transform="translate(149.691936, 203.624987)"><g/></g></g><g fill="#373737" fill-opacity="1"><g transform="translate(163.404704, 203.624987)"><g><path d="M 23.375 0 L 15.890625 0 L -1.25 -31.96875 L 11.46875 -31.96875 L 19.265625 -14.703125 L 26.921875 -31.96875 L 34.53125 -31.96875 L 42.203125 -14.703125 L 49.984375 -31.96875 L 62.703125 -31.96875 L 45.5625 0 L 38.078125 0 L 30.734375 -16.515625 Z M 23.375 0 "/></g></g></g><g fill="#373737" fill-opacity="1"><g transform="translate(221.54904, 203.624987)"><g><path d="M 5.609375 -31.96875 L 5.609375 -43.875 L 16.640625 -43.875 L 16.640625 -31.96875 L 23.375 -31.96875 L 23.375 -23.5625 L 16.640625 -23.5625 L 16.640625 -13.40625 C 16.640625 -10.445312 17.472656 -8.96875 19.140625 -8.96875 C 19.554688 -8.96875 19.988281 -9.050781 20.4375 -9.21875 C 20.894531 -9.382812 21.25 -9.550781 21.5 -9.71875 L 21.875 -9.96875 L 24.625 -1.0625 C 22.25 0.269531 19.546875 0.9375 16.515625 0.9375 C 14.441406 0.9375 12.65625 0.570312 11.15625 -0.15625 C 9.65625 -0.882812 8.519531 -1.859375 7.75 -3.078125 C 6.988281 -4.304688 6.441406 -5.59375 6.109375 -6.9375 C 5.773438 -8.289062 5.609375 -9.738281 5.609375 -11.28125 L 5.609375 -23.5625 L 1 -23.5625 L 1 -31.96875 Z M 5.609375 -31.96875 "/></g></g></g><g fill="#373737" fill-opacity="1"><g transform="translate(242.862126, 203.624987)"><g><path d="M 36.09375 -14.453125 L 12.90625 -14.453125 C 12.90625 -12.210938 13.628906 -10.550781 15.078125 -9.46875 C 16.535156 -8.394531 18.117188 -7.859375 19.828125 -7.859375 C 21.609375 -7.859375 23.015625 -8.09375 24.046875 -8.5625 C 25.085938 -9.039062 26.273438 -9.988281 27.609375 -11.40625 L 35.59375 -7.421875 C 32.269531 -1.847656 26.742188 0.9375 19.015625 0.9375 C 14.191406 0.9375 10.054688 -0.710938 6.609375 -4.015625 C 3.160156 -7.316406 1.4375 -11.296875 1.4375 -15.953125 C 1.4375 -20.609375 3.160156 -24.597656 6.609375 -27.921875 C 10.054688 -31.242188 14.191406 -32.90625 19.015625 -32.90625 C 24.078125 -32.90625 28.195312 -31.441406 31.375 -28.515625 C 34.5625 -25.585938 36.15625 -21.398438 36.15625 -15.953125 C 36.15625 -15.203125 36.132812 -14.703125 36.09375 -14.453125 Z M 13.21875 -20.5625 L 25.375 -20.5625 C 25.125 -22.226562 24.46875 -23.503906 23.40625 -24.390625 C 22.34375 -25.285156 20.984375 -25.734375 19.328125 -25.734375 C 17.492188 -25.734375 16.035156 -25.253906 14.953125 -24.296875 C 13.878906 -23.347656 13.300781 -22.101562 13.21875 -20.5625 Z M 13.21875 -20.5625 "/></g></g></g><g fill="#373737" fill-opacity="1"><g transform="translate(277.13782, 203.624987)"><g><path d="M 5.921875 -3.984375 C 2.929688 -7.265625 1.4375 -11.273438 1.4375 -16.015625 C 1.4375 -20.753906 2.929688 -24.753906 5.921875 -28.015625 C 8.910156 -31.273438 12.710938 -32.90625 17.328125 -32.90625 C 21.566406 -32.90625 25.054688 -31.390625 27.796875 -28.359375 L 27.921875 -28.359375 L 27.921875 -31.96875 L 38.828125 -31.96875 L 38.828125 16.203125 L 27.796875 16.203125 L 27.796875 -3.046875 C 25.054688 -0.390625 21.566406 0.9375 17.328125 0.9375 C 12.710938 0.9375 8.910156 -0.703125 5.921875 -3.984375 Z M 15.203125 -21.40625 C 13.835938 -20.019531 13.15625 -18.222656 13.15625 -16.015625 C 13.15625 -13.816406 13.867188 -12.007812 15.296875 -10.59375 C 16.734375 -9.1875 18.507812 -8.484375 20.625 -8.484375 C 22.707031 -8.484375 24.460938 -9.1875 25.890625 -10.59375 C 27.328125 -12.007812 28.046875 -13.816406 28.046875 -16.015625 C 28.046875 -18.179688 27.347656 -19.96875 25.953125 -21.375 C 24.566406 -22.789062 22.789062 -23.5 20.625 -23.5 C 18.382812 -23.5 16.578125 -22.800781 15.203125 -21.40625 Z M 15.203125 -21.40625 "/></g></g></g><g clip-path="url(#5e464e8617)"><path fill="#efb344" d="M 164.605469 185.503906 C 164.605469 196.03125 156.070312 204.566406 145.539062 204.566406 C 144.582031 204.566406 143.636719 204.492188 142.714844 204.355469 C 141.761719 203.738281 140.789062 202.980469 139.941406 202.058594 C 138.675781 200.554688 137.660156 198.96875 136.863281 197.363281 C 139.292969 199.148438 142.292969 200.199219 145.539062 200.199219 C 153.660156 200.199219 160.238281 193.617188 160.238281 185.503906 C 160.238281 179.886719 157.089844 175.007812 152.457031 172.53125 C 153.484375 171.585938 154.28125 170.476562 154.839844 169.203125 C 154.882812 169.109375 154.921875 169.019531 154.957031 168.925781 C 160.71875 172.203125 164.605469 178.402344 164.605469 185.503906 Z M 164.605469 185.503906 " fill-opacity="1" fill-rule="nonzero"/></g><g clip-path="url(#ed83cde8ca)"><path fill="#387f43" d="M 138.539062 203.238281 C 132.234375 195.730469 131.589844 186.363281 134.210938 180.980469 C 136.410156 176.449219 141.710938 175.210938 146.910156 173.550781 C 155.507812 170.804688 154.875 163.019531 152.035156 156.867188 C 147.511719 165.257812 129 161.742188 124.65625 178.160156 C 120.875 192.460938 133.398438 200.199219 133.398438 200.199219 C 121.863281 186.023438 129.945312 169.460938 144.542969 167.042969 C 134.882812 171.367188 128.648438 177.8125 130.027344 188.578125 C 131.289062 198.4375 138.539062 203.238281 138.539062 203.238281 Z M 138.539062 203.238281 " fill-opacity="1" fill-rule="nonzero"/></g><g fill="#231f20" fill-opacity="1"><g transform="translate(101.066869, 217.429116)"><g><path d="M 0.09375 0 L 2.8125 -6.84375 L 4.328125 -6.84375 L 7.046875 0 L 5.390625 0 L 4.9375 -1.1875 L 2.203125 -1.1875 L 1.75 0 Z M 2.609375 -2.40625 L 4.53125 -2.40625 L 3.5625 -4.90625 Z M 2.609375 -2.40625 "/></g></g></g><g fill="#231f20" fill-opacity="1"><g transform="translate(113.447327, 217.429116)"><g><path d="M 4.015625 0.140625 C 3.316406 0.140625 2.695312 -0.0078125 2.15625 -0.3125 C 1.613281 -0.613281 1.1875 -1.03125 0.875 -1.5625 C 0.570312 -2.101562 0.421875 -2.722656 0.421875 -3.421875 C 0.421875 -4.117188 0.570312 -4.734375 0.875 -5.265625 C 1.175781 -5.804688 1.59375 -6.226562 2.125 -6.53125 C 2.664062 -6.832031 3.285156 -6.984375 3.984375 -6.984375 C 4.535156 -6.984375 5.046875 -6.882812 5.515625 -6.6875 C 5.984375 -6.488281 6.378906 -6.210938 6.703125 -5.859375 C 7.035156 -5.503906 7.273438 -5.085938 7.421875 -4.609375 L 5.734375 -4.609375 C 5.578125 -4.910156 5.347656 -5.144531 5.046875 -5.3125 C 4.742188 -5.476562 4.398438 -5.5625 4.015625 -5.5625 C 3.609375 -5.5625 3.253906 -5.46875 2.953125 -5.28125 C 2.648438 -5.101562 2.410156 -4.851562 2.234375 -4.53125 C 2.054688 -4.207031 1.96875 -3.835938 1.96875 -3.421875 C 1.96875 -3.015625 2.050781 -2.648438 2.21875 -2.328125 C 2.394531 -2.003906 2.632812 -1.75 2.9375 -1.5625 C 3.25 -1.382812 3.613281 -1.296875 4.03125 -1.296875 C 4.53125 -1.296875 4.945312 -1.421875 5.28125 -1.671875 C 5.613281 -1.921875 5.828125 -2.257812 5.921875 -2.6875 L 3.703125 -2.6875 L 3.703125 -3.890625 L 7.578125 -3.890625 C 7.609375 -3.296875 7.546875 -2.753906 7.390625 -2.265625 C 7.242188 -1.773438 7.007812 -1.347656 6.6875 -0.984375 C 6.375 -0.628906 5.988281 -0.351562 5.53125 -0.15625 C 5.082031 0.0390625 4.578125 0.140625 4.015625 0.140625 Z M 4.015625 0.140625 "/></g></g></g><g fill="#231f20" fill-opacity="1"><g transform="translate(126.668308, 217.429116)"><g><path d="M 0.828125 0 L 0.828125 -6.84375 L 3.75 -6.84375 C 4.269531 -6.84375 4.722656 -6.75 5.109375 -6.5625 C 5.492188 -6.375 5.789062 -6.101562 6 -5.75 C 6.207031 -5.394531 6.3125 -4.972656 6.3125 -4.484375 C 6.3125 -3.984375 6.195312 -3.550781 5.96875 -3.1875 C 5.738281 -2.832031 5.421875 -2.5625 5.015625 -2.375 L 6.421875 0 L 4.625 0 L 3.40625 -2.125 L 2.375 -2.125 L 2.375 0 Z M 2.359375 -3.4375 L 3.546875 -3.4375 C 3.929688 -3.4375 4.222656 -3.523438 4.421875 -3.703125 C 4.628906 -3.890625 4.734375 -4.148438 4.734375 -4.484375 C 4.734375 -4.816406 4.628906 -5.070312 4.421875 -5.25 C 4.222656 -5.425781 3.929688 -5.515625 3.546875 -5.515625 L 2.359375 -5.515625 Z M 2.359375 -3.4375 "/></g></g></g><g fill="#231f20" fill-opacity="1"><g transform="translate(138.794661, 217.429116)"><g><path d="M 0.828125 0 L 0.828125 -6.84375 L 2.375 -6.84375 L 2.375 0 Z M 0.828125 0 "/></g></g></g><g fill="#231f20" fill-opacity="1"><g transform="translate(147.236429, 217.429116)"><g/></g></g><g fill="#231f20" fill-opacity="1"><g transform="translate(154.779046, 217.429116)"><g><path d="M 0.828125 0 L 0.828125 -6.84375 L 5.109375 -6.84375 L 5.109375 -5.4375 L 2.375 -5.4375 L 2.375 -3.734375 L 4.859375 -3.734375 L 4.859375 -2.359375 L 2.375 -2.359375 L 2.375 0 Z M 0.828125 0 "/></g></g></g><g fill="#231f20" fill-opacity="1"><g transform="translate(165.566441, 217.429116)"><g><path d="M 0.09375 0 L 2.8125 -6.84375 L 4.328125 -6.84375 L 7.046875 0 L 5.390625 0 L 4.9375 -1.1875 L 2.203125 -1.1875 L 1.75 0 Z M 2.609375 -2.40625 L 4.53125 -2.40625 L 3.5625 -4.90625 Z M 2.609375 -2.40625 "/></g></g></g><g fill="#231f20" fill-opacity="1"><g transform="translate(177.946899, 217.429116)"><g><path d="M 0.828125 0 L 0.828125 -6.84375 L 3.75 -6.84375 C 4.269531 -6.84375 4.722656 -6.75 5.109375 -6.5625 C 5.492188 -6.375 5.789062 -6.101562 6 -5.75 C 6.207031 -5.394531 6.3125 -4.972656 6.3125 -4.484375 C 6.3125 -3.984375 6.195312 -3.550781 5.96875 -3.1875 C 5.738281 -2.832031 5.421875 -2.5625 5.015625 -2.375 L 6.421875 0 L 4.625 0 L 3.40625 -2.125 L 2.375 -2.125 L 2.375 0 Z M 2.359375 -3.4375 L 3.546875 -3.4375 C 3.929688 -3.4375 4.222656 -3.523438 4.421875 -3.703125 C 4.628906 -3.890625 4.734375 -4.148438 4.734375 -4.484375 C 4.734375 -4.816406 4.628906 -5.070312 4.421875 -5.25 C 4.222656 -5.425781 3.929688 -5.515625 3.546875 -5.515625 L 2.359375 -5.515625 Z M 2.359375 -3.4375 "/></g></g></g><g fill="#231f20" fill-opacity="1"><g transform="translate(190.073253, 217.429116)"><g><path d="M 0.828125 0 L 0.828125 -6.84375 L 2.140625 -6.84375 L 4.578125 -3.296875 L 7 -6.84375 L 8.3125 -6.84375 L 8.3125 0 L 6.765625 0 L 6.765625 -4.125 L 5.109375 -1.6875 L 4.03125 -1.6875 L 2.359375 -4.125 L 2.359375 0 Z M 0.828125 0 "/></g></g></g><g fill="#231f20" fill-opacity="1"><g transform="translate(204.4475, 217.429116)"><g><path d="M 3.203125 0.140625 C 2.628906 0.140625 2.132812 0.046875 1.71875 -0.140625 C 1.3125 -0.335938 0.992188 -0.609375 0.765625 -0.953125 C 0.546875 -1.304688 0.4375 -1.71875 0.4375 -2.1875 L 1.953125 -2.1875 C 1.953125 -1.851562 2.0625 -1.59375 2.28125 -1.40625 C 2.507812 -1.226562 2.816406 -1.140625 3.203125 -1.140625 C 3.523438 -1.140625 3.78125 -1.203125 3.96875 -1.328125 C 4.15625 -1.460938 4.25 -1.644531 4.25 -1.875 C 4.25 -2.113281 4.132812 -2.304688 3.90625 -2.453125 C 3.675781 -2.609375 3.320312 -2.738281 2.84375 -2.84375 C 2.039062 -3.007812 1.445312 -3.265625 1.0625 -3.609375 C 0.675781 -3.953125 0.484375 -4.398438 0.484375 -4.953125 C 0.484375 -5.578125 0.710938 -6.070312 1.171875 -6.4375 C 1.628906 -6.800781 2.253906 -6.984375 3.046875 -6.984375 C 3.585938 -6.984375 4.054688 -6.890625 4.453125 -6.703125 C 4.847656 -6.515625 5.15625 -6.253906 5.375 -5.921875 C 5.59375 -5.585938 5.703125 -5.1875 5.703125 -4.71875 L 4.203125 -4.71875 C 4.203125 -5.03125 4.097656 -5.273438 3.890625 -5.453125 C 3.691406 -5.628906 3.414062 -5.71875 3.0625 -5.71875 C 2.738281 -5.71875 2.476562 -5.648438 2.28125 -5.515625 C 2.09375 -5.390625 2 -5.210938 2 -4.984375 C 2 -4.773438 2.101562 -4.597656 2.3125 -4.453125 C 2.519531 -4.316406 2.882812 -4.1875 3.40625 -4.0625 C 4.257812 -3.851562 4.875 -3.578125 5.25 -3.234375 C 5.632812 -2.898438 5.828125 -2.460938 5.828125 -1.921875 C 5.828125 -1.273438 5.59375 -0.769531 5.125 -0.40625 C 4.664062 -0.0390625 4.023438 0.140625 3.203125 0.140625 Z M 3.203125 0.140625 "/></g></g></g><g fill="#231f20" fill-opacity="1"><g transform="translate(215.958127, 217.429116)"><g/></g></g><g fill="#231f20" fill-opacity="1"><g transform="translate(223.500745, 217.429116)"><g><path d="M 0.828125 0 L 0.828125 -6.84375 L 3.5 -6.84375 C 4.050781 -6.84375 4.53125 -6.738281 4.9375 -6.53125 C 5.34375 -6.332031 5.65625 -6.046875 5.875 -5.671875 C 6.101562 -5.304688 6.21875 -4.875 6.21875 -4.375 C 6.21875 -3.875 6.101562 -3.4375 5.875 -3.0625 C 5.65625 -2.695312 5.34375 -2.410156 4.9375 -2.203125 C 4.53125 -2.003906 4.050781 -1.90625 3.5 -1.90625 L 2.375 -1.90625 L 2.375 0 Z M 2.359375 -3.25 L 3.375 -3.25 C 3.78125 -3.25 4.09375 -3.34375 4.3125 -3.53125 C 4.53125 -3.726562 4.640625 -4.003906 4.640625 -4.359375 C 4.640625 -4.722656 4.53125 -5 4.3125 -5.1875 C 4.09375 -5.382812 3.78125 -5.484375 3.375 -5.484375 L 2.359375 -5.484375 Z M 2.359375 -3.25 "/></g></g></g><g fill="#231f20" fill-opacity="1"><g transform="translate(235.24593, 217.429116)"><g><path d="M 2.71875 0 L 0.09375 -6.84375 L 1.765625 -6.84375 L 2.671875 -4.40625 L 3.484375 -2.234375 L 5.21875 -6.84375 L 6.875 -6.84375 L 4.25 0 Z M 2.71875 0 "/></g></g></g><g fill="#231f20" fill-opacity="1"><g transform="translate(247.450469, 217.429116)"><g><path d="M 2.46875 0 L 2.46875 -5.390625 L 0.296875 -5.390625 L 0.296875 -6.84375 L 6.1875 -6.84375 L 6.1875 -5.390625 L 4.015625 -5.390625 L 4.015625 0 Z M 2.46875 0 "/></g></g></g><g fill="#231f20" fill-opacity="1"><g transform="translate(259.176108, 217.429116)"><g/></g></g><g fill="#231f20" fill-opacity="1"><g transform="translate(266.718725, 217.429116)"><g><path d="M 0.828125 0 L 0.828125 -6.84375 L 2.375 -6.84375 L 2.375 -1.453125 L 5.375 -1.453125 L 5.375 0 Z M 0.828125 0 "/></g></g></g><g fill="#231f20" fill-opacity="1"><g transform="translate(277.594079, 217.429116)"><g><path d="M 2.46875 0 L 2.46875 -5.390625 L 0.296875 -5.390625 L 0.296875 -6.84375 L 6.1875 -6.84375 L 6.1875 -5.390625 L 4.015625 -5.390625 L 4.015625 0 Z M 2.46875 0 "/></g></g></g><g fill="#231f20" fill-opacity="1"><g transform="translate(289.319718, 217.429116)"><g><path d="M 0.828125 0 L 0.828125 -6.84375 L 3.53125 -6.84375 C 4.25 -6.84375 4.878906 -6.695312 5.421875 -6.40625 C 5.960938 -6.125 6.382812 -5.722656 6.6875 -5.203125 C 6.988281 -4.691406 7.140625 -4.097656 7.140625 -3.421875 C 7.140625 -2.734375 6.988281 -2.132812 6.6875 -1.625 C 6.382812 -1.113281 5.960938 -0.710938 5.421875 -0.421875 C 4.878906 -0.140625 4.25 0 3.53125 0 Z M 2.375 -1.421875 L 3.5 -1.421875 C 3.90625 -1.421875 4.257812 -1.503906 4.5625 -1.671875 C 4.875 -1.835938 5.113281 -2.070312 5.28125 -2.375 C 5.457031 -2.675781 5.546875 -3.023438 5.546875 -3.421875 C 5.546875 -3.828125 5.457031 -4.175781 5.28125 -4.46875 C 5.113281 -4.769531 4.875 -5.003906 4.5625 -5.171875 C 4.25 -5.335938 3.890625 -5.421875 3.484375 -5.421875 L 2.375 -5.421875 Z M 2.375 -1.421875 "/></g></g></g></svg>